<svg xmlns="http://www.w3.org/2000/svg" xmlns:xlink="http://www.w3.org/1999/xlink" viewBox="0 0 48 48" version="1.1" x="0px" y="0px"><title>9.12</title><desc>Created with Sketch.</desc><g stroke="none" stroke-width="1" fill="none" fill-rule="evenodd"><g fill="#000000"><g><path d="M26.9737493,24.1431645 L39.6996371,11.4187238 C40.4818344,10.6366155 40.4842562,9.36786393 39.7031188,8.58681534 C38.9165355,7.80032143 37.6539486,7.80732541 36.8708883,8.59029667 L24.1450005,21.3147374 L11.4191126,8.59029667 C10.6369153,7.80818833 9.36801949,7.80576676 8.58688208,8.58681534 C7.80029872,9.37330926 7.80730349,10.6357525 8.59036381,11.4187238 L21.3162517,24.1431645 L8.59036381,36.8676053 C7.80816651,37.6497136 7.80574467,38.9184651 8.58688208,39.6995137 C9.37346544,40.4860076 10.6360523,40.4790037 11.4191126,39.6960324 L24.1450005,26.9715917 L36.8708883,39.6960324 C37.6530856,40.4781407 38.9219814,40.4805623 39.7031188,39.6995137 C40.4897022,38.9130198 40.4826974,37.6505765 39.6996371,36.8676053 L26.9737493,24.1431645 L26.9737493,24.1431645 Z"></path></g></g></g></svg>