<svg xmlns="http://www.w3.org/2000/svg" xmlns:xlink="http://www.w3.org/1999/xlink" version="1.1" x="0px" y="0px" viewBox="0 0 24 24" enable-background="new 0 0 24 24" xml:space="preserve"><g><path d="M20.071,1.705C19.829,1.568,19.555,1.5,19.255,1.5c-1.744,0-4.381,2.518-6.412,6.125c-1.104,1.957-1.874,3.957-2.168,5.629   c-0.326,1.85,0.003,2.803,0.456,3.299l-2.177,3.861c-0.136,0.24-0.051,0.545,0.19,0.68c0.077,0.045,0.161,0.064,0.245,0.064   c0.174,0,0.344-0.092,0.436-0.254l2.18-3.865c0.108,0.02,0.218,0.039,0.335,0.039c1.745,0,4.382-2.518,6.412-6.125   c0.357-0.635,0.683-1.279,0.969-1.92c0.067-0.15,0.057-0.324-0.029-0.465c-0.079-0.131-0.213-0.217-0.362-0.236l0.734-0.426   c0.103-0.061,0.18-0.152,0.22-0.264C21.372,4.613,21.293,2.395,20.071,1.705z M11.69,15.561c-0.175-0.463-0.193-1.213-0.031-2.133   c0.275-1.564,1.005-3.451,2.055-5.313c1.864-3.309,4.079-5.34,5.31-5.568L11.69,15.561z M19.402,7.133l-2.017,1.174   c-0.191,0.111-0.287,0.334-0.235,0.549s0.238,0.371,0.459,0.383l0.889,0.049c-0.192,0.393-0.398,0.787-0.617,1.176   c-1.862,3.309-4.11,5.367-5.321,5.592l7.344-13.033C20.169,3.732,20.086,5.164,19.402,7.133z"></path><path d="M18.54,21.5H3.452c-0.276,0-0.5,0.223-0.5,0.5c0,0.275,0.224,0.5,0.5,0.5H18.54c0.276,0,0.5-0.225,0.5-0.5   C19.04,21.723,18.816,21.5,18.54,21.5z"></path></g></svg>