<svg xmlns="http://www.w3.org/2000/svg" xmlns:xlink="http://www.w3.org/1999/xlink" version="1.1" preserveAspectRatio="none" x="0px" y="0px" viewBox="0 0 100 100"><defs><g id="a"><path fill="#000000" stroke="none" d=" M 83.4 36 Q 89.9 25.05 93.55 18.85 L 86.05 13.85 6.5 13.85 Q 10.3 20.55 14 26.65 23.4 42.25 26.7 48.65 28.6 52.35 31.95 57.9 36.7 65.9 37.1 66.65 39.4 71.45 41.65 75.45 44.8 81 46.25 81.5 51.3 86.05 53.15 86.05 53.35 86.15 53.55 86.2 54.45 85.25 56.5 82 58.6 78.65 60.35 75.35 61.6 72.95 66.95 64.1 72.1 55.6 72.5 54.85 73.9 52.1 83.4 36 M 87.8 22.15 Q 85.7 25.2 81.65 32 76.5 40.75 70.2 52.15 54.65 78 53.4 80.3 L 39.45 55.6 Q 36.65 49.8 33.05 43.95 32.95 43.85 32.9 43.75 24.4 28.3 20.6 22.4 L 87.8 22.15 M 46.75 76.05 Q 46.75 76 46.75 75.95 46.8 76.1 46.9 76.25 46.8 76.15 46.75 76.05 M 73.6 38.4 Q 77.9 31.05 80.35 26.95 L 27.25 26.95 Q 29.8 31.35 32.25 35.45 38.55 45.9 40.75 50.1 42.05 52.6 44.25 56.3 47.4 61.6 47.7 62.15 49.2 65.3 50.75 68 52.85 71.7 53.65 71.85 54.2 71.2 55.6 69.05 57 66.8 58.2 64.55 59.05 63 62.6 57.1 66.05 51.45 66.3 50.95 67.25 49.1 73.6 38.4 M 64.95 30.7 Q 61.45 36.55 57.3 44.15 51.25 54.15 48.45 58.9 L 42.7 48.75 Q 34.8 34.1 31.7 29.25 L 65.85 29.15 Q 65.4 29.9 64.95 30.7 Z"></path></g></defs><g transform="matrix( 1, 0, 0, 1, 0,0) "><use xlink:href="#a"></use></g></svg>